<?xml version="1.0" standalone="no"?>
<!DOCTYPE svg PUBLIC "-//W3C//DTD SVG 20010904//EN"
 "http://www.w3.org/TR/2001/REC-SVG-20010904/DTD/svg10.dtd">
<svg version="1.0" xmlns="http://www.w3.org/2000/svg"
 width="700.000000pt" height="700.000000pt" viewBox="0 0 700.000000 700.000000"
 preserveAspectRatio="xMidYMid meet">
<metadata>
Created by potrace 1.11, written by Peter Selinger 2001-2013
</metadata>
<g transform="translate(0.000000,700.000000) scale(0.100000,-0.100000)"
fill="#000000" stroke="none">
<path d="M3298 6995 c-2 -1 -41 -5 -88 -9 -130 -9 -232 -23 -435 -61 -112 -21
-440 -118 -520 -154 -11 -5 -50 -21 -87 -35 -167 -64 -449 -215 -633 -340 -49
-33 -92 -63 -95 -66 -3 -3 -41 -32 -84 -65 -206 -155 -444 -393 -620 -619
-335 -431 -575 -959 -671 -1481 -10 -49 -18 -97 -20 -105 -2 -9 -6 -43 -10
-75 -4 -33 -9 -69 -11 -80 -18 -93 -25 -520 -12 -690 19 -238 70 -503 144
-745 19 -63 39 -124 43 -135 5 -11 14 -36 21 -55 7 -19 19 -49 26 -67 8 -17
14 -34 14 -37 0 -4 18 -45 40 -92 22 -47 40 -88 40 -90 0 -2 32 -64 71 -137
151 -278 305 -496 512 -722 101 -109 280 -279 367 -347 30 -23 57 -45 60 -48
3 -3 39 -30 80 -60 282 -207 600 -373 935 -489 214 -74 524 -145 720 -165 28
-3 84 -8 125 -12 149 -15 572 -8 694 11 11 2 44 6 71 10 493 61 1033 265 1455
548 103 69 127 86 186 132 28 22 68 54 90 70 21 17 48 39 60 51 12 11 34 31
50 43 37 29 173 161 244 238 420 453 713 1004 849 1600 16 70 32 151 37 178 4
28 9 57 10 65 2 8 6 39 9 68 4 29 8 62 10 74 19 95 26 518 12 673 -15 169 -20
204 -42 330 -30 162 -30 162 -60 278 -94 363 -254 722 -461 1037 -61 94 -172
245 -218 298 -13 15 -43 50 -66 77 -142 167 -361 370 -550 509 -58 43 -112 83
-121 89 -46 35 -268 166 -374 222 -277 145 -675 280 -972 329 -46 8 -234 34
-293 41 -54 7 -526 16 -532 10z"/>
</g>
</svg>
